<?xml version="1.0" standalone="no"?>
<!DOCTYPE svg PUBLIC "-//W3C//DTD SVG 20010904//EN"
 "http://www.w3.org/TR/2001/REC-SVG-20010904/DTD/svg10.dtd">
<svg version="1.0" xmlns="http://www.w3.org/2000/svg"
 width="512.000000pt" height="512.000000pt" viewBox="0 0 512.000000 512.000000"
 preserveAspectRatio="xMidYMid meet">
<metadata>
Created by potrace 1.11, written by Peter Selinger 2001-2013
</metadata>
<g transform="translate(0.000000,512.000000) scale(0.100000,-0.100000)"
fill="#000000" stroke="none">
<path d="M0 2560 l0 -2560 2560 0 2560 0 0 2560 0 2560 -2560 0 -2560 0 0
-2560z m2710 1410 c190 -67 359 -126 375 -132 30 -9 86 11 845 306 194 76 206
79 236 64 16 -7 34 -24 41 -38 10 -20 13 -318 13 -1433 0 -1221 -2 -1412 -15
-1437 -11 -22 -30 -33 -87 -53 -40 -14 -253 -87 -473 -162 -220 -75 -430 -147
-466 -159 l-67 -23 -308 108 c-170 60 -419 148 -553 195 l-244 86 -81 -32
c-621 -243 -937 -360 -960 -354 -13 3 -33 15 -43 26 -17 19 -18 82 -21 1439
-2 1239 0 1423 13 1448 11 23 30 34 87 54 40 14 246 84 458 157 212 73 421
144 465 160 l80 27 180 -63 c99 -34 335 -117 525 -184z"/>
<path d="M2010 2751 l0 -1088 43 -16 c23 -9 159 -57 302 -107 143 -50 369
-129 501 -176 133 -46 244 -84 248 -84 3 0 6 490 6 1089 l0 1089 -27 10 c-16
5 -176 62 -358 125 -181 64 -413 145 -515 181 -102 36 -188 66 -192 66 -5 0
-8 -490 -8 -1089z"/>
</g>
</svg>
